<svg width="36" height="35" viewBox="0 0 36 35" fill="none" xmlns="http://www.w3.org/2000/svg">
<path d="M18 0.0625C21.0938 0.0625 24.0469 0.90625 26.7188 2.45312C29.3906 4 31.5 6.10938 33.0469 8.78125C34.5938 11.4531 35.4375 14.4062 35.4375 17.5C35.4375 20.6641 34.5938 23.5469 33.0469 26.2188C31.5 28.8906 29.3906 31.0703 26.7188 32.6172C24.0469 34.1641 21.0938 34.9375 18 34.9375C14.8359 34.9375 11.9531 34.1641 9.28125 32.6172C6.60938 31.0703 4.42969 28.8906 2.88281 26.2188C1.33594 23.5469 0.5625 20.6641 0.5625 17.5C0.5625 14.4062 1.33594 11.4531 2.88281 8.78125C4.42969 6.10938 6.60938 4 9.28125 2.45312C11.9531 0.90625 14.8359 0.0625 18 0.0625ZM18 32.6875C20.7422 32.6875 23.2734 32.0547 25.5938 30.6484C27.9141 29.3125 29.7422 27.4844 31.1484 25.0938C32.4844 22.7734 33.1875 20.2422 33.1875 17.5C33.1875 14.7578 32.4844 12.2266 31.1484 9.90625C29.7422 7.58594 27.9141 5.75781 25.5938 4.35156C23.2031 3.01562 20.6719 2.3125 17.9297 2.3125C15.1875 2.3125 12.6562 3.01562 10.3359 4.35156C8.01562 5.75781 6.1875 7.58594 4.85156 9.90625C3.44531 12.2969 2.8125 14.8281 2.8125 17.5703C2.8125 20.3125 3.44531 22.8438 4.85156 25.1641C6.1875 27.4844 8.01562 29.3125 10.4062 30.6484C12.7266 32.0547 15.2578 32.6875 18 32.6875ZM24.6797 12.6484C24.8203 12.5078 24.8906 12.2969 24.8906 12.0156C24.8906 11.8047 24.8203 11.5938 24.6797 11.4531L24.0469 10.8203C23.9062 10.6797 23.6953 10.6094 23.4844 10.6094C23.2031 10.6094 22.9922 10.6797 22.8516 10.8203L18 15.6719L13.1484 10.8203C12.9375 10.6797 12.7266 10.6094 12.5156 10.6094C12.2344 10.6094 12.0938 10.6797 11.9531 10.8203L11.3203 11.4531C11.1797 11.5938 11.1094 11.8047 11.1094 12.0156C11.1094 12.2969 11.1797 12.5078 11.3203 12.6484L16.2422 17.5L11.3203 22.3516C11.1797 22.5625 11.1094 22.7734 11.1094 22.9844C11.1094 23.2656 11.1797 23.4062 11.3203 23.5469L11.9531 24.1797C12.0938 24.3203 12.2344 24.3906 12.5156 24.3906C12.7266 24.3906 12.9375 24.3203 13.1484 24.1797L18 19.2578L22.8516 24.1797C22.9922 24.3203 23.2031 24.3906 23.4844 24.3906C23.6953 24.3906 23.9062 24.3203 24.0469 24.1797L24.6797 23.5469C24.8203 23.4062 24.8906 23.2656 24.8906 22.9844C24.8906 22.7734 24.8203 22.5625 24.6797 22.3516L19.8281 17.5L24.6797 12.6484Z" fill="white"/>
</svg>
