<svg width="16" height="14" viewBox="0 0 16 14" fill="none" xmlns="http://www.w3.org/2000/svg">
<path d="M14.4375 7.875C14.793 7.875 15.0938 8.01172 15.3672 8.25781C15.6133 8.53125 15.75 8.83203 15.75 9.1875V12.6875C15.75 13.0703 15.6133 13.3711 15.3672 13.6172C15.0938 13.8906 14.793 14 14.4375 14H1.3125C0.929688 14 0.628906 13.8906 0.382812 13.6172C0.109375 13.3711 0 13.0703 0 12.6875V9.1875C0 8.83203 0.109375 8.53125 0.382812 8.25781C0.628906 8.01172 0.929688 7.875 1.3125 7.875H3.82812L2.57031 6.61719C2.29688 6.34375 2.1875 6.04297 2.1875 5.6875C2.1875 5.33203 2.32422 5.03125 2.57031 4.75781C2.81641 4.51172 3.11719 4.375 3.5 4.375H5.25V1.3125C5.25 0.957031 5.35938 0.65625 5.63281 0.382812C5.87891 0.136719 6.17969 0 6.5625 0H9.1875C9.54297 0 9.84375 0.136719 10.1172 0.382812C10.3633 0.65625 10.5 0.957031 10.5 1.3125V4.375H12.25C12.6328 4.375 12.9336 4.51172 13.1797 4.75781C13.4258 5.03125 13.5625 5.33203 13.5625 5.6875C13.5625 6.04297 13.4531 6.34375 13.1797 6.61719L11.9219 7.875H14.4375ZM3.5 5.6875L7.875 10.0625L12.25 5.6875H9.1875V1.3125H6.5625V5.6875H3.5ZM14.4375 12.6875V9.1875H10.6094L8.80469 10.9922C8.53125 11.2656 8.23047 11.375 7.875 11.375C7.49219 11.375 7.19141 11.2656 6.94531 10.9922L5.14062 9.1875H1.3125V12.6875H14.4375ZM12.0312 10.9375C12.0312 11.1289 12.0859 11.293 12.2227 11.4023C12.332 11.5391 12.4961 11.5938 12.6875 11.5938C12.8516 11.5938 13.0156 11.5391 13.1523 11.4023C13.2617 11.293 13.3438 11.1289 13.3438 10.9375C13.3438 10.7734 13.2617 10.6094 13.1523 10.4727C13.0156 10.3633 12.8516 10.2812 12.6875 10.2812C12.4961 10.2812 12.332 10.3633 12.2227 10.4727C12.0859 10.6094 12.0312 10.7734 12.0312 10.9375Z" fill="#5AB5D2"/>
</svg>
